<svg width="63" height="63" viewBox="0 0 63 63" fill="none" xmlns="http://www.w3.org/2000/svg">
<path d="M19.1406 22.2871H20.2656C20.207 22.8262 20.0527 23.3086 19.8027 23.7344C19.5527 24.1602 19.1992 24.498 18.7422 24.748C18.2852 24.9941 17.7148 25.1172 17.0312 25.1172C16.5312 25.1172 16.0762 25.0234 15.666 24.8359C15.2598 24.6484 14.9102 24.3828 14.6172 24.0391C14.3242 23.6914 14.0977 23.2754 13.9375 22.791C13.7812 22.3027 13.7031 21.7598 13.7031 21.1621V20.3125C13.7031 19.7148 13.7812 19.1738 13.9375 18.6895C14.0977 18.2012 14.3262 17.7832 14.623 17.4355C14.9238 17.0879 15.2852 16.8203 15.707 16.6328C16.1289 16.4453 16.6035 16.3516 17.1309 16.3516C17.7754 16.3516 18.3203 16.4727 18.7656 16.7148C19.2109 16.957 19.5566 17.293 19.8027 17.7227C20.0527 18.1484 20.207 18.6426 20.2656 19.2051H19.1406C19.0859 18.8066 18.9844 18.4648 18.8359 18.1797C18.6875 17.8906 18.4766 17.668 18.2031 17.5117C17.9297 17.3555 17.5723 17.2773 17.1309 17.2773C16.752 17.2773 16.418 17.3496 16.1289 17.4941C15.8438 17.6387 15.6035 17.8438 15.4082 18.1094C15.2168 18.375 15.0723 18.6934 14.9746 19.0645C14.877 19.4355 14.8281 19.8477 14.8281 20.3008V21.1621C14.8281 21.5801 14.8711 21.9727 14.957 22.3398C15.0469 22.707 15.1816 23.0293 15.3613 23.3066C15.541 23.584 15.7695 23.8027 16.0469 23.9629C16.3242 24.1191 16.6523 24.1973 17.0312 24.1973C17.5117 24.1973 17.8945 24.1211 18.1797 23.9688C18.4648 23.8164 18.6797 23.5977 18.8242 23.3125C18.9727 23.0273 19.0781 22.6855 19.1406 22.2871ZM27.6189 20.1367V21.0566H23.0017V20.1367H27.6189ZM23.1775 16.4688V25H22.0466V16.4688H23.1775ZM28.6033 16.4688V25H27.4783V16.4688H28.6033Z" fill="#E3FD16"/>
<path d="M36.7441 44.7051L39.2578 37.4688H40.4824L37.3242 46H36.4512L36.7441 44.7051ZM34.3945 37.4688L36.8848 44.7051L37.1953 46H36.3223L33.1699 37.4688H34.3945ZM47.2908 45.0801V46H42.7732V45.0801H47.2908ZM43.0017 37.4688V46H41.8709V37.4688H43.0017ZM46.6931 41.1367V42.0566H42.7732V41.1367H46.6931ZM47.2322 37.4688V38.3945H42.7732V37.4688H47.2322Z" fill="#E3FD16"/>
<circle cx="31.5" cy="31.5" r="30" stroke="#E3FD16"/>
<path d="M1 62L62 1" stroke="#E3FD16"/>
</svg>
