<svg width="14" height="14" viewBox="0 0 14 14" fill="none" xmlns="http://www.w3.org/2000/svg">
<path d="M12.29 5.39999C12.67 5.73999 12.99 6.06999 13.23 6.32999C13.3958 6.51374 13.4876 6.75247 13.4876 6.99999C13.4876 7.24752 13.3958 7.48624 13.23 7.66999C12.18 8.79999 9.79001 11 7.00001 11H6.60001" stroke="#979292" stroke-linecap="round" stroke-linejoin="round"/>
<path d="M3.87 10.13C2.71163 9.48125 1.66497 8.65067 0.769998 7.67C0.604159 7.48625 0.51236 7.24752 0.51236 7C0.51236 6.75248 0.604159 6.51375 0.769998 6.33C1.82 5.2 4.21 3 7 3C8.09977 3.02299 9.17611 3.32216 10.13 3.87" stroke="#979292" stroke-linecap="round" stroke-linejoin="round"/>
<path d="M12.5 1.5L1.5 12.5" stroke="#979292" stroke-linecap="round" stroke-linejoin="round"/>
<path d="M5.59 8.41C5.21441 8.03665 5.00223 7.52958 5 7C5 6.46957 5.21071 5.96086 5.58579 5.58579C5.96086 5.21071 6.46957 5 7 5C7.52958 5.00223 8.03665 5.21441 8.41 5.59" stroke="#979292" stroke-linecap="round" stroke-linejoin="round"/>
<path d="M8.74 8C8.56198 8.3043 8.3067 8.55614 8 8.73" stroke="#979292" stroke-linecap="round" stroke-linejoin="round"/>
</svg>
